<?xml version="1.0" encoding="UTF-8" standalone="no"?>
<svg
   xmlns:dc="http://purl.org/dc/elements/1.1/"
   xmlns:cc="http://creativecommons.org/ns#"
   xmlns:rdf="http://www.w3.org/1999/02/22-rdf-syntax-ns#"
   xmlns:svg="http://www.w3.org/2000/svg"
   xmlns="http://www.w3.org/2000/svg"
   xmlns:sodipodi="http://sodipodi.sourceforge.net/DTD/sodipodi-0.dtd"
   xmlns:inkscape="http://www.inkscape.org/namespaces/inkscape"
   viewBox="-60 40 120 120"
   stroke="#000"
   version="1.1"
   id="svg10"
   sodipodi:docname="centered logo.svg"
   inkscape:version="0.92.4 (5da689c313, 2019-01-14)">
  <metadata
     id="metadata16">
    <rdf:RDF>
      <cc:Work
         rdf:about="">
        <dc:format>image/svg+xml</dc:format>
        <dc:type
           rdf:resource="http://purl.org/dc/dcmitype/StillImage" />
        <dc:title />
      </cc:Work>
    </rdf:RDF>
  </metadata>
  <defs
     id="defs14" />
  <sodipodi:namedview
     pagecolor="#ffffff"
     bordercolor="#666666"
     borderopacity="1"
     objecttolerance="10"
     gridtolerance="10"
     guidetolerance="10"
     inkscape:pageopacity="0"
     inkscape:pageshadow="2"
     inkscape:window-width="1920"
     inkscape:window-height="986"
     id="namedview12"
     showgrid="false"
     showguides="false"
     inkscape:zoom="7.8666667"
     inkscape:cx="77.243118"
     inkscape:cy="13.083855"
     inkscape:window-x="-11"
     inkscape:window-y="-11"
     inkscape:window-maximized="1"
     inkscape:current-layer="svg10" />
  <circle
     style="opacity:1;fill:#ffffff;fill-opacity:1;stroke:#000000;stroke-width:1.49300158;stroke-linecap:round;stroke-linejoin:round;stroke-miterlimit:4;stroke-dasharray:none;stroke-dashoffset:0;stroke-opacity:1"
     id="path847"
     cx="-1.1324883e-06"
     cy="100"
     r="59.253498" />
  <path
     d="m -21.649567,87.388735 c -2.971509,0 -5.348717,2.3772 -5.348717,5.34871 v 25.639875 c 0,2.97151 2.377208,5.34872 5.348717,5.34872 h 43.384033 c 2.971508,0 5.348717,-2.37721 5.348717,-5.34872 V 92.737445 c 0,-2.97151 -2.377209,-5.34871 -5.348717,-5.34871 z m 8.150425,12.56523 a 5.9430183,5.9430184 0 0 1 5.9430177,5.943015 5.9430183,5.9430184 0 0 1 -5.9430177,5.94303 5.9430183,5.9430184 0 0 1 -5.943018,-5.94303 5.9430183,5.9430184 0 0 1 5.943018,-5.943015 z m 28.101986,0 a 5.9430183,5.9430184 0 0 1 5.943019,5.943015 5.9430183,5.9430184 0 0 1 -5.943019,5.94303 5.9430183,5.9430184 0 0 1 -5.9430192,-5.94303 5.9430183,5.9430184 0 0 1 5.9430192,-5.943015 z"
     id="path2"
     inkscape:connector-curvature="0"
     style="fill:#ededed;stroke-width:0.84900266" />
  <path
     d="m 31.158395,116.08501 h 6.452419 c 2.292308,0 4.414814,-1.5282 4.414814,-5.51851 V 99.274755 c 0,-3.73559 -2.207407,-4.3299 -4.499714,-4.3299 h -6.45242 v 21.055265 z"
     id="path4"
     inkscape:connector-curvature="0"
     style="fill:#0066b3;stroke-width:0.84900266" />
  <path
     d="m -31.073496,95.029755 h -6.45242 c -2.292307,0 -4.414814,1.44331 -4.414814,5.433605 v 11.29173 c 0,3.73562 2.207407,4.32992 4.499714,4.32992 h 6.452419 l 0.0849,-21.055255 z"
     id="path6"
     inkscape:connector-curvature="0"
     style="fill:#0066b3;stroke-width:0.84900266" />
  <path
     d="m -0.50940259,50.372215 c 0,0 -0.93390291,0.764103 -0.93390291,2.88661 0,2.122507 -1.2735039,12.98974 -2.2074067,16.725351 -1.4433045,5.858118 -7.6410228,14.772651 -7.6410228,14.772651 h 3.3960097 c 0,0 2.292307,-6.282625 7.72592371,-6.282625 5.43361669,0 7.98062449,6.197729 7.98062449,6.197729 h 3.5658111 c 0,0 -7.9806247,-10.01824 -8.9145276,-14.857554 C 1.4433034,64.97506 0.59430081,55.381332 0.59430081,53.258825 c 0,-2.122507 -1.1037034,-2.88661 -1.1037034,-2.88661 z m 0.084901,20.715665 c 0.6792022,0 0.5094017,0.424501 1.0188032,1.613105 0.50940149,1.273504 1.27350379,2.207407 1.27350379,2.207407 h -4.329914 c 0.2547007,-0.339601 0.679202,-1.188604 1.1037034,-2.292307 0.42450121,-1.018803 0.2547008,-1.528205 0.93390361,-1.528205 z"
     style="fill:#ed1c24;stroke-width:0.84900266;stroke-linejoin:round"
     id="path8"
     inkscape:connector-curvature="0" />
  <g
     aria-label="The Frenchineers"
     style="font-style:normal;font-weight:normal;font-size:10.03660774px;line-height:1.25;font-family:sans-serif;letter-spacing:0px;word-spacing:0px;fill:#000000;fill-opacity:1;stroke:none;stroke-width:0.2509152"
     id="text851">
    <path
       d="m -37.848349,129.06405 h -2.607165 v 6.43461 h -0.970337 v -6.43461 h -2.607165 v -0.86252 h 6.184667 z"
       style="stroke-width:0.2509152"
       id="path834" />
    <path
       d="m -32.354678,135.49866 h -0.921329 v -3.11684 q 0,-0.37735 -0.04411,-0.7057 -0.04411,-0.33325 -0.161723,-0.51947 -0.122517,-0.20583 -0.35285,-0.30384 -0.230332,-0.10292 -0.597884,-0.10292 -0.377352,0 -0.78901,0.18623 -0.411658,0.18622 -0.789011,0.47536 v 4.08718 h -0.921329 v -7.62547 h 0.921329 v 2.75908 q 0.431261,-0.35775 0.891925,-0.55867 0.460665,-0.20093 0.945833,-0.20093 0.887024,0 1.35259,0.53417 0.465565,0.53418 0.465565,1.53882 z"
       style="stroke-width:0.2509152"
       id="path836" />
    <path
       d="m -25.998487,132.85719 h -4.033266 q 0,0.50477 0.151921,0.88212 0.151922,0.37245 0.416559,0.61259 0.254836,0.23523 0.602784,0.35285 0.35285,0.11761 0.774309,0.11761 0.558678,0 1.122257,-0.22053 0.56848,-0.22543 0.808614,-0.44106 h 0.04901 v 1.00464 q -0.465566,0.19603 -0.950734,0.32835 -0.485168,0.13232 -1.019343,0.13232 -1.362391,0 -2.126898,-0.73511 -0.764507,-0.74 -0.764507,-2.09749 0,-1.34279 0.730202,-2.1318 0.735103,-0.78901 1.930871,-0.78901 1.107555,0 1.705439,0.64689 0.602785,0.64689 0.602785,1.83776 z m -0.896826,-0.7057 q -0.0049,-0.7253 -0.367551,-1.12226 -0.357751,-0.39696 -1.092854,-0.39696 -0.740004,0 -1.181065,0.43617 -0.436162,0.43616 -0.49497,1.08305 z"
       style="stroke-width:0.2509152"
       id="path838" />
    <path
       d="m -16.339232,129.06405 h -3.690218 v 2.05829 h 3.170745 v 0.86252 h -3.170745 v 3.5138 h -0.970336 v -7.29713 h 4.660554 z"
       style="stroke-width:0.2509152"
       id="path840" />
    <path
       d="m -11.894309,131.02923 h -0.04901 q -0.205829,-0.049 -0.401857,-0.0686 -0.191127,-0.0245 -0.455764,-0.0245 -0.42636,0 -0.823315,0.19112 -0.396956,0.18623 -0.764507,0.48517 v 3.88625 h -0.92133 v -5.47407 h 0.92133 v 0.80861 q 0.548877,-0.44106 0.965435,-0.62238 0.421459,-0.18623 0.85762,-0.18623 0.240134,0 0.347949,0.0147 0.107815,0.01 0.323445,0.0441 z"
       style="stroke-width:0.2509152"
       id="path842" />
    <path
       d="M -6.4349438,132.85719 H -10.46821 q 0,0.50477 0.151922,0.88212 0.151921,0.37245 0.4165582,0.61259 0.2548357,0.23523 0.6027845,0.35285 0.3528495,0.11761 0.7743087,0.11761 0.5586783,0 1.1222574,-0.22053 0.5684797,-0.22543 0.8086134,-0.44106 h 0.049007 v 1.00464 q -0.4655653,0.19603 -0.9507334,0.32835 -0.485168,0.13232 -1.019343,0.13232 -1.3623911,0 -2.1268987,-0.73511 -0.764507,-0.74 -0.764507,-2.09749 0,-1.34279 0.730203,-2.1318 0.7351027,-0.78901 1.9308704,-0.78901 1.1075554,0 1.7054392,0.64689 0.6027846,0.64689 0.6027846,1.83776 z m -0.8968258,-0.7057 q -0.0049,-0.7253 -0.3675516,-1.12226 -0.3577501,-0.39696 -1.0928533,-0.39696 -0.7400037,0 -1.1810656,0.43617 -0.4361609,0.43616 -0.4949699,1.08305 z"
       style="stroke-width:0.2509152"
       id="path844" />
    <path
       d="M -0.46100464,135.49866 H -1.3823339 v -3.11684 q 0,-0.37735 -0.044106,-0.7057 -0.044106,-0.33325 -0.1617226,-0.51947 -0.1225172,-0.20583 -0.3528495,-0.30384 -0.2303323,-0.10292 -0.5978839,-0.10292 -0.3773529,0 -0.7890107,0.18623 -0.4116577,0.18622 -0.7890106,0.47536 v 4.08718 h -0.9213292 v -5.47407 h 0.9213292 v 0.60768 q 0.4312605,-0.35775 0.8919251,-0.55867 0.4606646,-0.20093 0.9458326,-0.20093 0.8870245,0 1.35258976,0.53417 0.4655653,0.53418 0.4655653,1.53882 z"
       style="stroke-width:0.2509152"
       id="path846" />
    <path
       d="m 5.3610128,135.15561 q -0.4606646,0.22053 -0.8772231,0.34305 -0.4116577,0.12251 -0.877223,0.12251 -0.5929832,0 -1.0879526,-0.17152 -0.4949694,-0.17642 -0.8478189,-0.52927 -0.3577502,-0.35285 -0.5537777,-0.89193 -0.19602748,-0.53907 -0.19602748,-1.25948 0,-1.34278 0.73510308,-2.10729 0.7400038,-0.76451 1.9504736,-0.76451 0.470466,0 0.9213292,0.13232 0.455764,0.13232 0.8331169,0.32345 v 1.02424 h -0.049007 q -0.4214591,-0.32835 -0.8723223,-0.50477 -0.4459626,-0.17643 -0.8723224,-0.17643 -0.78411,0 -1.2398739,0.52928 -0.4508632,0.52437 -0.4508632,1.54371 0,0.98994 0.4410618,1.52412 0.4459626,0.52927 1.2496753,0.52927 0.2793392,0 0.5684797,-0.0735 0.2891406,-0.0735 0.5194729,-0.19112 0.2009282,-0.10292 0.3773529,-0.21563 0.1764248,-0.11762 0.2793392,-0.20093 h 0.049007 z"
       style="stroke-width:0.2509152"
       id="path848" />
    <path
       d="m 11.12422,135.49866 h -0.92133 v -3.11684 q 0,-0.37735 -0.04411,-0.7057 -0.04411,-0.33325 -0.1617226,-0.51947 -0.1225172,-0.20583 -0.3528495,-0.30384 -0.2303323,-0.10292 -0.5978838,-0.10292 -0.377353,0 -0.7890107,0.18623 -0.4116577,0.18622 -0.7890107,0.47536 v 4.08718 H 6.5469775 v -7.62547 h 0.9213292 v 2.75908 q 0.4312605,-0.35775 0.8919251,-0.55867 0.4606646,-0.20093 0.9458327,-0.20093 0.8870245,0 1.3525895,0.53417 0.465566,0.53418 0.465566,1.53882 z"
       style="stroke-width:0.2509152"
       id="path850" />
    <path
       d="m 13.888208,129.10816 h -1.038946 v -0.95563 h 1.038946 z m -0.05881,6.3905 h -0.921329 v -5.47407 H 13.8294 Z"
       style="stroke-width:0.2509152"
       id="path852" />
    <path
       d="m 20.2395,135.49866 h -0.92133 v -3.11684 q 0,-0.37735 -0.04411,-0.7057 -0.04411,-0.33325 -0.161722,-0.51947 -0.122518,-0.20583 -0.35285,-0.30384 -0.230332,-0.10292 -0.597884,-0.10292 -0.377353,0 -0.78901,0.18623 -0.411658,0.18622 -0.789011,0.47536 v 4.08718 h -0.921329 v -5.47407 h 0.921329 v 0.60768 q 0.43126,-0.35775 0.891925,-0.55867 0.460665,-0.20093 0.945833,-0.20093 0.887024,0 1.352589,0.53417 0.465566,0.53418 0.465566,1.53882 z"
       style="stroke-width:0.2509152"
       id="path854" />
    <path
       d="m 26.595692,132.85719 h -4.033266 q 0,0.50477 0.151922,0.88212 0.151921,0.37245 0.416558,0.61259 0.254836,0.23523 0.602785,0.35285 0.352849,0.11761 0.774308,0.11761 0.558679,0 1.122258,-0.22053 0.568479,-0.22543 0.808613,-0.44106 h 0.04901 v 1.00464 q -0.465565,0.19603 -0.950733,0.32835 -0.485169,0.13232 -1.019343,0.13232 -1.362392,0 -2.126899,-0.73511 -0.764507,-0.74 -0.764507,-2.09749 0,-1.34279 0.730202,-2.1318 0.735104,-0.78901 1.930871,-0.78901 1.107556,0 1.705439,0.64689 0.602785,0.64689 0.602785,1.83776 z m -0.896826,-0.7057 q -0.0049,-0.7253 -0.367551,-1.12226 -0.357751,-0.39696 -1.092854,-0.39696 -0.740003,0 -1.181065,0.43617 -0.436161,0.43616 -0.49497,1.08305 z"
       style="stroke-width:0.2509152"
       id="path856" />
    <path
       d="m 32.574528,132.85719 h -4.033266 q 0,0.50477 0.151922,0.88212 0.151921,0.37245 0.416558,0.61259 0.254836,0.23523 0.602785,0.35285 0.352849,0.11761 0.774308,0.11761 0.558679,0 1.122258,-0.22053 0.568479,-0.22543 0.808613,-0.44106 h 0.04901 v 1.00464 q -0.465565,0.19603 -0.950733,0.32835 -0.485168,0.13232 -1.019343,0.13232 -1.362391,0 -2.126899,-0.73511 -0.764507,-0.74 -0.764507,-2.09749 0,-1.34279 0.730202,-2.1318 0.735104,-0.78901 1.930871,-0.78901 1.107556,0 1.70544,0.64689 0.602784,0.64689 0.602784,1.83776 z m -0.896826,-0.7057 q -0.0049,-0.7253 -0.367551,-1.12226 -0.35775,-0.39696 -1.092854,-0.39696 -0.740003,0 -1.181065,0.43617 -0.436161,0.43616 -0.49497,1.08305 z"
       style="stroke-width:0.2509152"
       id="path858" />
    <path
       d="m 37.387001,131.02923 h -0.04901 q -0.205829,-0.049 -0.401857,-0.0686 -0.191127,-0.0245 -0.455764,-0.0245 -0.426359,0 -0.823315,0.19112 -0.396956,0.18623 -0.764507,0.48517 v 3.88625 h -0.92133 v -5.47407 h 0.92133 v 0.80861 q 0.548877,-0.44106 0.965435,-0.62238 0.421459,-0.18623 0.85762,-0.18623 0.240134,0 0.347949,0.0147 0.107815,0.01 0.323446,0.0441 z"
       style="stroke-width:0.2509152"
       id="path860" />
    <path
       d="m 42.174977,133.92064 q 0,0.7498 -0.622387,1.23007 -0.617487,0.48027 -1.690738,0.48027 -0.607685,0 -1.117356,-0.14212 -0.504771,-0.14702 -0.847819,-0.31855 v -1.03404 h 0.04901 q 0.436161,0.32834 0.970336,0.52437 0.534175,0.19113 1.024243,0.19113 0.607686,0 0.950734,-0.19603 0.343048,-0.19603 0.343048,-0.61749 0,-0.32344 -0.186226,-0.49007 -0.186226,-0.16662 -0.715501,-0.28424 -0.196027,-0.0441 -0.514572,-0.10291 -0.313644,-0.0588 -0.57338,-0.12742 -0.720401,-0.19113 -1.024244,-0.55868 -0.298942,-0.37245 -0.298942,-0.91152 0,-0.33815 0.137219,-0.63709 0.14212,-0.29895 0.42636,-0.53418 0.274439,-0.23033 0.695898,-0.36265 0.42636,-0.13722 0.950733,-0.13722 0.490069,0 0.989939,0.12252 0.504771,0.11761 0.838018,0.28914 v 0.98504 h -0.04901 q -0.35285,-0.25974 -0.857621,-0.43616 -0.50477,-0.18133 -0.989938,-0.18133 -0.504771,0 -0.85272,0.19603 -0.347949,0.19112 -0.347949,0.57338 0,0.33815 0.21073,0.50967 0.205829,0.17152 0.666493,0.27934 0.254836,0.0588 0.56848,0.11762 0.318545,0.0588 0.529274,0.10781 0.64199,0.14702 0.989939,0.50477 0.347949,0.36265 0.347949,0.96054 z"
       style="stroke-width:0.2509152"
       id="path862" />
  </g>
</svg>
