<?xml version="1.0" encoding="UTF-8" standalone="no"?>
<svg
   xmlns:dc="http://purl.org/dc/elements/1.1/"
   xmlns:cc="http://creativecommons.org/ns#"
   xmlns:rdf="http://www.w3.org/1999/02/22-rdf-syntax-ns#"
   xmlns:svg="http://www.w3.org/2000/svg"
   xmlns="http://www.w3.org/2000/svg"
   xmlns:sodipodi="http://sodipodi.sourceforge.net/DTD/sodipodi-0.dtd"
   xmlns:inkscape="http://www.inkscape.org/namespaces/inkscape"
   viewBox="-60 40 306.99799 120"
   version="1.1"
   id="svg1626"
   sodipodi:docname="logo_right.svg"
   width="306.99799"
   height="120"
   style="stroke:#000000"
   inkscape:version="0.92.4 (5da689c313, 2019-01-14)">
  <metadata
     id="metadata1632">
    <rdf:RDF>
      <cc:Work
         rdf:about="">
        <dc:format>image/svg+xml</dc:format>
        <dc:type
           rdf:resource="http://purl.org/dc/dcmitype/StillImage" />
        <dc:title></dc:title>
      </cc:Work>
    </rdf:RDF>
  </metadata>
  <defs
     id="defs1630" />
  <sodipodi:namedview
     pagecolor="#ffffff"
     bordercolor="#666666"
     borderopacity="1"
     objecttolerance="10"
     gridtolerance="10"
     guidetolerance="10"
     inkscape:pageopacity="0"
     inkscape:pageshadow="2"
     inkscape:window-width="1920"
     inkscape:window-height="986"
     id="namedview1628"
     showgrid="false"
     inkscape:zoom="0.98333333"
     inkscape:cx="-104.00598"
     inkscape:cy="171.52935"
     inkscape:window-x="-11"
     inkscape:window-y="-11"
     inkscape:window-maximized="1"
     inkscape:current-layer="svg1626" />
  <path
     d="m -25.5,100.4 c -3.5,0 -6.3,2.8 -6.3,6.3 v 30.2 c 0,3.5 2.8,6.3 6.3,6.3 h 51.1 c 3.5,0 6.3,-2.8 6.3,-6.3 v -30.2 c 0,-3.5 -2.8,-6.3 -6.3,-6.3 z m 9.6,14.8 a 7,7 0 0 1 7,7 7,7 0 0 1 -7,7 7,7 0 0 1 -7,-7 7,7 0 0 1 7,-7 z m 33.1,0 a 7,7 0 0 1 7,7 7,7 0 0 1 -7,7 7,7 0 0 1 -7,-7 7,7 0 0 1 7,-7 z"
     id="path1618"
     inkscape:connector-curvature="0"
     style="fill:#ededed" />
  <path
     d="m 36.7,134.2 h 7.6 c 2.7,0 5.2,-1.8 5.2,-6.5 v -13.3 c 0,-4.4 -2.6,-5.1 -5.3,-5.1 h -7.6 v 24.8 z"
     id="path1620"
     inkscape:connector-curvature="0"
     style="fill:#0066b3" />
  <path
     d="m -36.6,109.4 h -7.6 c -2.7,0 -5.2,1.7 -5.2,6.4 v 13.3 c 0,4.4 2.6,5.1 5.3,5.1 h 7.6 l 0.1,-24.8 z"
     id="path1622"
     inkscape:connector-curvature="0"
     style="fill:#0066b3" />
  <path
     d="m -0.6,56.8 c 0,0 -1.1,0.9 -1.1,3.4 0,2.5 -1.5,15.3 -2.6,19.7 -1.7,6.9 -9,17.4 -9,17.4 h 4 c 0,0 2.7,-7.4 9.1,-7.4 6.4,0 9.4,7.3 9.4,7.3 h 4.2 C 13.4,97.2 4,85.4 2.9,79.7 1.7,74 0.7,62.7 0.7,60.2 c 0,-2.5 -1.3,-3.4 -1.3,-3.4 z m 0.1,24.4 c 0.8,0 0.6,0.5 1.2,1.9 0.6,1.5 1.5,2.6 1.5,2.6 h -5.1 c 0.3,-0.4 0.8,-1.4 1.3,-2.7 0.5,-1.2 0.3,-1.8 1.1,-1.8 z"
     style="fill:#ed1c24;stroke-linejoin:round"
     id="path1624"
     inkscape:connector-curvature="0" />
  <text
     xml:space="preserve"
     style="font-style:normal;font-variant:normal;font-weight:normal;font-stretch:normal;font-size:26.50951195px;line-height:1.25;font-family:'Cambria Math';-inkscape-font-specification:'Cambria Math';letter-spacing:0px;word-spacing:0px;fill:#000000;fill-opacity:1;stroke:none;stroke-width:0.66273779"
     x="64.125816"
     y="97.972458"
     id="text5883"><tspan
       sodipodi:role="line"
       id="tspan5881"
       x="64.125816"
       y="97.972458"
       style="font-style:normal;font-variant:normal;font-weight:normal;font-stretch:normal;font-family:consolas;-inkscape-font-specification:consolas;stroke-width:0.66273779">The </tspan><tspan
       sodipodi:role="line"
       x="64.125816"
       y="132.04132"
       id="tspan5885"
       style="font-style:normal;font-variant:normal;font-weight:normal;font-stretch:normal;font-family:consolas;-inkscape-font-specification:consolas;stroke-width:0.66273779">Frenchineers</tspan></text>
</svg>
